<svg width="61" height="52" viewBox="0 0 61 52" fill="none" xmlns="http://www.w3.org/2000/svg">
<path d="M6.05579 5.34797L11.1023 3.47855L18.1674 1.60913L30.279 9.08681L41.3813 2.54384L53.4929 5.34797L57.5301 11.8909L59.801 17.4992L58.5394 22.1727L45.4185 38.0628L30.279 49.2793L12.1116 35.2587L3.02789 23.1075V13.7604L6.05579 5.34797Z" fill="#654BB1"/>
<path d="M33.2663 5.41031L33.2663 5.41033L33.2621 5.4141L30.6008 7.77895L30.2626 8.0795L29.9298 7.77288L27.3724 5.41611C25.8532 4.14486 23.8104 2.64088 22.7343 2.126C21.2321 1.40723 18.6246 1.10693 15.9419 1.24204C13.2619 1.37702 10.6502 1.93934 9.1383 2.83273C3.88929 5.9444 1.02476 10.4259 0.565757 15.4773C0.105489 20.5426 2.05768 26.2602 6.60814 31.8275C8.56816 34.1938 14.0404 39.0291 19.3086 43.2967C21.9355 45.4247 24.4959 47.3988 26.5205 48.8389C27.5338 49.5596 28.4056 50.1413 29.0807 50.5408C29.419 50.7409 29.699 50.89 29.9174 50.9875C30.0265 51.0362 30.1132 51.0689 30.1791 51.0887C30.2358 51.1057 30.2634 51.109 30.2687 51.1096C30.2739 51.109 30.3015 51.1057 30.3582 51.0887C30.4242 51.0689 30.5109 51.0362 30.62 50.9875C30.8384 50.89 31.1184 50.7409 31.4566 50.5408C32.1318 50.1413 33.0036 49.5596 34.0168 48.8389C36.0414 47.3988 38.6018 45.4247 41.2288 43.2967C46.4968 39.0292 51.969 34.194 53.9291 31.8276C59.9362 24.4615 61.4573 17.3814 58.7987 11.0598C57.3571 7.8131 55.3701 5.34801 52.9077 3.69305C50.4455 2.0382 47.4801 1.17446 44.0503 1.17446C41.6075 1.17446 39.8486 1.39994 38.2445 2.02697C36.6392 2.65442 35.1474 3.70017 33.2663 5.41031ZM26.9937 8.12712L26.9938 8.12701L27.0026 8.13542L30.1897 11.1853L34.0275 7.84657C36.6764 5.54205 39.1967 4.07739 41.7059 3.50679C44.2277 2.93333 46.6951 3.27291 49.2085 4.49834C51.5968 5.61834 53.428 7.05515 54.7344 8.8887C56.0409 10.7225 56.8005 12.9223 57.0931 15.5338C57.5303 19.2081 57.1658 22.1193 55.27 25.3707C53.3973 28.5826 50.0404 32.1073 44.5764 37.0633L44.5761 37.0636C41.9117 39.4767 39.2469 41.822 37.1045 43.6558C34.9823 45.4723 33.337 46.8182 32.7271 47.2084C32.0372 47.6635 31.3736 48.0482 30.5708 48.09C29.7629 48.1319 28.908 47.8249 27.818 47.1451C25.6548 45.796 22.2617 42.7755 15.9611 37.0634L15.961 37.0633C10.497 32.1073 7.14008 28.5826 5.26734 25.3707C3.37153 22.1192 3.00701 19.208 3.44428 15.5334C3.73701 12.9669 4.49651 10.7694 5.77657 8.93788C7.05645 7.10662 8.83837 5.66764 11.1362 4.59045C13.0103 3.64896 14.1216 3.11911 15.3164 3.01859C16.5048 2.91861 17.7406 3.24714 19.8463 3.82925C20.8207 4.07578 22.1041 4.69638 23.3752 5.46523C24.6571 6.24057 25.9675 7.19178 26.9937 8.12712Z" fill="#A1B2CD" stroke="#A1B2CD"/>
</svg>
