<svg width="86" height="86" viewBox="0 0 86 86" fill="none" xmlns="http://www.w3.org/2000/svg">
<g clip-path="url(#clip0_1106_311)">
<path d="M37.7333 2.80004C20.3999 9.4667 11.1999 32.2667 19.3333 48.1334L21.4666 52.2667L10.7999 63.4667C-0.533386 75.2 -2.13339 78.9334 2.39995 83.0667C6.93328 87.2 10.2666 85.7334 21.8666 74.5334L33.0666 63.8667L37.1999 66C57.8666 76.6667 85.3333 58.6667 85.3333 34.6667C85.3333 21.2 75.6 7.33337 63.0666 2.6667C54.1333 -0.66663 46.6666 -0.66663 37.7333 2.80004ZM65.0666 13.6C79.8666 23.4667 79.4666 45.7334 64.2666 56.1334C60.4 58.6667 57.8666 59.3334 50.6666 59.3334C40.6666 59.3334 34.7999 56.4 29.3333 48.4C25.7333 43.0667 24.3999 32.9334 26.5333 26.4C28.3999 20.9334 35.0666 13.7334 40.6666 11.0667C46.9333 8.2667 58.8 9.4667 65.0666 13.6Z" fill="#654BB1"/>
<path d="M47.2 14.6667C38.9333 16.5334 32 23.2 32 29.2C32 33.6 35.6 32.5334 41.3333 26.5334C46.4 21.2 46.6667 21.0667 54.2667 21.4667C61.4667 22 62 21.7334 62.4 19.0667C62.8 16.1334 62.1333 15.7334 53.3333 14C52.2667 13.8667 49.4667 14.1334 47.2 14.6667Z" fill="#654BB1"/>
</g>
<defs>
<clipPath id="clip0_1106_311">
<rect width="85.3333" height="85.3333" fill="white"/>
</clipPath>
</defs>
</svg>
