<?xml version="1.0" standalone="no"?>
<!DOCTYPE svg PUBLIC "-//W3C//DTD SVG 20010904//EN"
 "http://www.w3.org/TR/2001/REC-SVG-20010904/DTD/svg10.dtd">
<svg version="1.0" xmlns="http://www.w3.org/2000/svg"
 width="64.000000pt" height="64.000000pt" viewBox="0 0 64.000000 64.000000"
 preserveAspectRatio="xMidYMid meet">

<g transform="translate(0.000000,64.000000) scale(0.100000,-0.100000)"
fill="#6D6D6D" stroke="none">
<path d="M283 619 c-130 -50 -199 -221 -138 -340 l16 -31 -80 -84 c-85 -88
-97 -116 -63 -147 34 -31 59 -20 146 64 l84 80 31 -16 c155 -80 361 55 361
235 0 101 -73 205 -167 240 -67 25 -123 25 -190 -1z m205 -81 c111 -74 108
-241 -6 -319 -29 -19 -48 -24 -102 -24 -75 0 -119 22 -160 82 -27 40 -37 116
-21 165 14 41 64 95 106 115 47 21 136 12 183 -19z"/>
<path d="M354 530 c-62 -14 -114 -64 -114 -109 0 -33 27 -25 70 20 38 40 40
41 97 38 54 -4 58 -2 61 18 3 22 -2 25 -68 38 -8 1 -29 -1 -46 -5z"/>
</g>
</svg>
