<svg width="30" height="29" viewBox="0 0 30 29" fill="none" xmlns="http://www.w3.org/2000/svg">
<path d="M0.881836 11.4625L10.3818 9.46252L14.8818 0.462524L19.3818 9.46252L28.8818 11.4625L22.3818 18.4625L23.3818 27.4625L14.8818 23.4625L6.38184 27.4625L7.88184 17.9625L0.881836 11.4625Z" fill="#654BB1"/>
<path d="M13.8975 0.681274C13.5694 1.05627 12.5382 3.11877 11.6007 5.22815L9.91316 9.0719L5.31941 9.54065C-1.28996 10.1969 -1.47746 10.7125 3.30379 15.1188L6.96004 18.4938L5.92879 23.0406C4.94441 27.2594 4.94441 27.6813 5.64754 28.3844C6.35066 29.0875 6.72566 28.9469 10.6163 26.6969L14.8819 24.2594L19.1475 26.6969C23.0382 28.9469 23.4132 29.0875 24.1163 28.3844C24.8194 27.6813 24.8194 27.2594 23.835 23.0875L22.8038 18.4938L26.3194 15.2594C31.3819 10.7125 31.1475 10.0563 24.2569 9.4469L19.8507 9.0719L18.1632 5.22815C15.8194 -0.0687256 15.1163 -0.818726 13.8975 0.681274ZM16.4757 6.16565C18.1632 10.3375 19.0069 11.1813 21.8663 11.2281C23.0382 11.2281 24.8194 11.3688 25.7569 11.5563L27.4913 11.8844L24.1632 14.6969C20.46 17.8375 20.5538 17.5563 22.1007 23.9313L22.7569 26.6031L20.3663 25.1969C15.3038 22.2438 15.0694 22.15 13.3819 23.0406C12.5382 23.4625 10.7569 24.4469 9.39754 25.2438L7.00691 26.6969L7.66316 23.9781C9.21004 17.4625 9.30379 17.7906 5.60066 14.65L2.27254 11.8844L4.00691 11.5563C4.94441 11.3688 6.72566 11.2281 7.89754 11.2281C10.7569 11.1813 11.6007 10.3375 13.2882 6.16565C14.0382 4.29065 14.7413 2.74377 14.8819 2.74377C15.0225 2.74377 15.7257 4.29065 16.4757 6.16565Z" fill="#A1B2CD"/>
</svg>
